
        <svg xmlns="http://www.w3.org/2000/svg" xmlns:xlink="http://www.w3.org/1999/xlink" version="1.1" width="3171.4285714285716" height="1326.2518707623512" viewBox="0 0 3171.4285714285716 1326.2518707623512">
			
			<g transform="scale(8.571428571428571) translate(10, 10)">
				<defs id="SvgjsDefs7072"/><g id="SvgjsG7073" featureKey="pxMwYC-0" transform="matrix(3.472222222222222,0,0,3.472222222222222,134,0)" fill="#000"><g xmlns="http://www.w3.org/2000/svg"><path d="M23.415,20.585l-5.074-5.073C19.389,13.932,20,12.038,20,10c0-1.513-0.346-2.941-0.946-4.226L16.73,8.097   C16.902,8.703,17,9.34,17,10c0,3.859-3.141,7-7,7c-3.86,0-7-3.141-7-7c0-3.86,3.14-7,7-7c1.719,0,3.293,0.626,4.514,1.658   l2.124-2.124C14.871,0.962,12.551,0,10,0C4.477,0,0,4.476,0,10c0,5.523,4.477,10,10,10c2.038,0,3.932-0.611,5.512-1.659   l5.074,5.073c0.78,0.779,2.047,0.779,2.829-0.001C24.195,22.632,24.195,21.365,23.415,20.585z"/><path d="M13,7.586l-2.293-2.293c-0.287-0.286-0.716-0.371-1.09-0.217C9.244,5.231,9,5.596,9,6v5.586l-1.293-1.293   c-0.391-0.391-1.023-0.391-1.414,0l-1.88,1.88c0.254,0.649,0.616,1.243,1.067,1.761L7,12.414l2.293,2.293   c0.286,0.286,0.716,0.373,1.09,0.217C10.756,14.77,11,14.404,11,14V8.414l1.293,1.293c0.391,0.391,1.023,0.391,1.414,0l6.5-6.5   L22,5V0h-5l1.793,1.793L13,7.586z"/></g></g><g id="SvgjsG7074" featureKey="Vx5QiU-0" transform="matrix(1.5754412057521021,0,0,1.5754412057521021,-3.18239120557009,95.3748658262244)" fill="#000"><path d="M12.7 20 l-1.86 0 l-4.32 -5.9 l-2.96 0 l0 5.9 l-1.54 0 l0 -14.58 l5.06 0 c1.72 0 3.1 0.48 3.9 1.28 s1.22 1.8 1.22 2.98 c0 2.46 -1.84 3.88 -4 4.16 z M3.56 6.859999999999999 l0 5.84 l3.38 0 c1.28 0 2.28 -0.36 2.86 -0.94 c0.56 -0.56 0.84 -1.26 0.84 -2.04 c0 -1.44 -0.88 -2.86 -3.66 -2.86 l-3.42 0 z M23.82 15.48 l-8.04 0 c0.06 0.98 0.42 1.78 1.1 2.42 c0.68 0.66 1.5 0.98 2.46 0.98 c1.5 0 2.62 -0.74 3.08 -2.12 l1.28 0.4 c-0.28 0.94 -0.82 1.68 -1.62 2.22 c-0.8 0.52 -1.7 0.8 -2.72 0.8 c-0.94 0 -1.8 -0.24 -2.58 -0.7 s-1.38 -1.08 -1.8 -1.88 c-0.44 -0.78 -0.66 -1.64 -0.66 -2.58 c0 -0.9 0.2 -1.74 0.62 -2.52 c0.4 -0.8 0.98 -1.42 1.74 -1.9 c0.74 -0.48 1.58 -0.72 2.48 -0.72 c0.98 0 1.84 0.22 2.56 0.68 c0.72 0.44 1.26 1.06 1.6 1.82 c0.36 0.76 0.52 1.62 0.52 2.62 c0 0.1 0 0.26 -0.02 0.48 z M15.8 14.24 l6.58 0 c-0.1 -0.92 -0.44 -1.66 -1 -2.24 c-0.56 -0.56 -1.3 -0.84 -2.22 -0.84 c-0.86 0 -1.58 0.3 -2.22 0.9 c-0.64 0.62 -1.02 1.34 -1.14 2.18 z M34.96 20 l-1.46 0 l0 -5.78 c0 -0.92 -0.22 -1.64 -0.7 -2.2 c-0.46 -0.54 -1.14 -0.82 -2.04 -0.82 c-0.86 0 -1.58 0.3 -2.14 0.9 c-0.54 0.6 -0.82 1.34 -0.82 2.24 l0 5.66 l-1.46 0 l0 -9.94 l1.42 0 l0 1.82 c0.8 -1.34 1.94 -2 3.44 -2 c1.18 0 2.1 0.36 2.78 1.08 c0.64 0.74 0.98 1.7 0.98 2.9 l0 6.14 z M46.900000000000006 15.48 l-8.04 0 c0.06 0.98 0.42 1.78 1.1 2.42 c0.68 0.66 1.5 0.98 2.46 0.98 c1.5 0 2.62 -0.74 3.08 -2.12 l1.28 0.4 c-0.28 0.94 -0.82 1.68 -1.62 2.22 c-0.8 0.52 -1.7 0.8 -2.72 0.8 c-0.94 0 -1.8 -0.24 -2.58 -0.7 s-1.38 -1.08 -1.8 -1.88 c-0.44 -0.78 -0.66 -1.64 -0.66 -2.58 c0 -0.9 0.2 -1.74 0.62 -2.52 c0.4 -0.8 0.98 -1.42 1.74 -1.9 c0.74 -0.48 1.58 -0.72 2.48 -0.72 c0.98 0 1.84 0.22 2.56 0.68 c0.72 0.44 1.26 1.06 1.6 1.82 c0.36 0.76 0.52 1.62 0.52 2.62 c0 0.1 0 0.26 -0.02 0.48 z M38.88 14.24 l6.58 0 c-0.1 -0.92 -0.44 -1.66 -1 -2.24 c-0.56 -0.56 -1.3 -0.84 -2.22 -0.84 c-0.86 0 -1.58 0.3 -2.22 0.9 c-0.64 0.62 -1.02 1.34 -1.14 2.18 z M57.22 19.86 l0 -2.08 c-0.9 1.52 -2.18 2.26 -3.84 2.26 c-0.92 0 -1.74 -0.24 -2.46 -0.7 s-1.26 -1.08 -1.64 -1.84 c-0.38 -0.78 -0.56 -1.6 -0.56 -2.52 c0 -0.88 0.18 -1.7 0.56 -2.48 c0.38 -0.76 0.94 -1.4 1.66 -1.88 c0.72 -0.5 1.54 -0.74 2.44 -0.74 c0.92 0 1.74 0.26 2.38 0.7 c0.62 0.44 1.04 0.92 1.48 1.56 l0 -2.08 l1.44 0 l0 9.7 c0 1.7 -0.48 3 -1.4 3.88 c-0.94 0.88 -2.2 1.34 -3.78 1.34 c-1.24 0 -2.3 -0.34 -3.16 -0.98 c-0.86 -0.66 -1.4 -1.46 -1.58 -2.44 l1.32 -0.44 c0.24 1.02 1.16 2.58 3.4 2.58 c1.06 0 1.92 -0.28 2.62 -0.88 c0.7 -0.58 1.12 -1.62 1.12 -2.96 z M53.68 18.76 c1.02 0 1.86 -0.36 2.54 -1.12 c0.68 -0.74 1.02 -1.64 1.02 -2.68 c0.04 -1.94 -1.56 -3.82 -3.56 -3.78 c-1.08 0 -1.92 0.36 -2.54 1.08 c-0.64 0.72 -0.94 1.64 -0.94 2.74 c-0.04 2.04 1.34 3.78 3.48 3.76 z M65.2 14.26 l2.76 0 l0 -0.66 c0 -1.6 -0.88 -2.42 -2.54 -2.42 c-0.8 0 -1.48 0.26 -1.88 0.66 s-0.64 0.86 -0.72 1.36 l-1.4 -0.3 c0.02 -0.5 0.5 -1.48 1.4 -2.2 c0.6 -0.46 1.56 -0.82 2.64 -0.82 c1.82 0 3.02 0.68 3.62 2.06 c0.2 0.46 0.3 1 0.3 1.64 l0 2.8 c0 1.66 0.06 2.88 0.16 3.62 l-1.44 0 c-0.08 -0.44 -0.14 -1.02 -0.14 -1.74 l0 0 c-0.84 1.28 -1.94 1.92 -3.36 1.92 c-0.98 0 -1.8 -0.28 -2.4 -0.84 c-0.62 -0.54 -0.94 -1.24 -0.94 -2.1 l0 -0.1 c0 -2.16 2.16 -2.88 3.94 -2.88 z M67.96 15.8 l0 -0.34 l-2.78 0 c-0.58 0 -1.12 0.1 -1.62 0.34 c-0.5 0.22 -0.84 0.7 -0.84 1.32 c0 0.56 0.2 0.98 0.62 1.3 c0.4 0.32 0.9 0.48 1.52 0.48 c0.88 0 1.62 -0.3 2.22 -0.88 c0.58 -0.56 0.88 -1.32 0.88 -2.22 z M71.82000000000001 15.02 c0 -1.3 0.48 -2.58 1.28 -3.54 c0.8 -0.98 2.02 -1.6 3.38 -1.6 c0.92 0 1.74 0.26 2.36 0.7 s1.06 0.92 1.5 1.56 l0 -7.3 l1.44 0 l0 15.16 l-1.42 0 l0 -2.12 c-0.92 1.52 -2.22 2.26 -3.88 2.26 c-1.38 0 -2.6 -0.6 -3.4 -1.54 c-0.78 -0.94 -1.26 -2.22 -1.26 -3.58 z M76.78 18.88 c2.04 0.02 3.62 -1.88 3.58 -3.88 c0 -1.3 -0.64 -2.54 -1.74 -3.28 c-0.56 -0.36 -1.18 -0.54 -1.84 -0.54 c-1.06 0 -1.9 0.36 -2.52 1.1 c-0.64 0.74 -0.96 1.66 -0.96 2.78 c0 1.38 0.56 2.56 1.62 3.28 c0.54 0.36 1.16 0.54 1.86 0.54 z M93.84 15.48 l-8.04 0 c0.06 0.98 0.42 1.78 1.1 2.42 c0.68 0.66 1.5 0.98 2.46 0.98 c1.5 0 2.62 -0.74 3.08 -2.12 l1.28 0.4 c-0.28 0.94 -0.82 1.68 -1.62 2.22 c-0.8 0.52 -1.7 0.8 -2.72 0.8 c-0.94 0 -1.8 -0.24 -2.58 -0.7 s-1.38 -1.08 -1.8 -1.88 c-0.44 -0.78 -0.66 -1.64 -0.66 -2.58 c0 -0.9 0.2 -1.74 0.62 -2.52 c0.4 -0.8 0.98 -1.42 1.74 -1.9 c0.74 -0.48 1.58 -0.72 2.48 -0.72 c0.98 0 1.84 0.22 2.56 0.68 c0.72 0.44 1.26 1.06 1.6 1.82 c0.36 0.76 0.52 1.62 0.52 2.62 c0 0.1 0 0.26 -0.02 0.48 z M85.82000000000001 14.24 l6.58 0 c-0.1 -0.92 -0.44 -1.66 -1 -2.24 c-0.56 -0.56 -1.3 -0.84 -2.22 -0.84 c-0.86 0 -1.58 0.3 -2.22 0.9 c-0.64 0.62 -1.02 1.34 -1.14 2.18 z M112.62 20 l-1.86 0 l-4.32 -5.9 l-2.96 0 l0 5.9 l-1.54 0 l0 -14.58 l5.06 0 c1.72 0 3.1 0.48 3.9 1.28 s1.22 1.8 1.22 2.98 c0 2.46 -1.84 3.88 -4 4.16 z M103.48 6.859999999999999 l0 5.84 l3.38 0 c1.28 0 2.28 -0.36 2.86 -0.94 c0.56 -0.56 0.84 -1.26 0.84 -2.04 c0 -1.44 -0.88 -2.86 -3.66 -2.86 l-3.42 0 z M123.74000000000001 15.48 l-8.04 0 c0.06 0.98 0.42 1.78 1.1 2.42 c0.68 0.66 1.5 0.98 2.46 0.98 c1.5 0 2.62 -0.74 3.08 -2.12 l1.28 0.4 c-0.28 0.94 -0.82 1.68 -1.62 2.22 c-0.8 0.52 -1.7 0.8 -2.72 0.8 c-0.94 0 -1.8 -0.24 -2.58 -0.7 s-1.38 -1.08 -1.8 -1.88 c-0.44 -0.78 -0.66 -1.64 -0.66 -2.58 c0 -0.9 0.2 -1.74 0.62 -2.52 c0.4 -0.8 0.98 -1.42 1.74 -1.9 c0.74 -0.48 1.58 -0.72 2.48 -0.72 c0.98 0 1.84 0.22 2.56 0.68 c0.72 0.44 1.26 1.06 1.6 1.82 c0.36 0.76 0.52 1.62 0.52 2.62 c0 0.1 0 0.26 -0.02 0.48 z M115.72000000000001 14.24 l6.58 0 c-0.1 -0.92 -0.44 -1.66 -1 -2.24 c-0.56 -0.56 -1.3 -0.84 -2.22 -0.84 c-0.86 0 -1.58 0.3 -2.22 0.9 c-0.64 0.62 -1.02 1.34 -1.14 2.18 z M132.82 17.18 c0 0.88 -0.34 1.6 -1.02 2.14 c-0.68 0.56 -1.52 0.84 -2.5 0.84 c-1.6 0 -2.64 -0.66 -3.18 -1.44 c-0.4 -0.54 -0.54 -1.02 -0.6 -1.52 l1.32 -0.34 c0.16 0.92 0.86 2.04 2.44 2.04 c0.56 0 1.04 -0.16 1.46 -0.46 c0.4 -0.28 0.6 -0.68 0.6 -1.18 c0 -0.4 -0.16 -0.72 -0.48 -0.96 c-0.32 -0.26 -0.7 -0.42 -1.14 -0.52 l-1.52 -0.34 c-1.64 -0.36 -2.48 -1.24 -2.48 -2.6 c0 -1.02 0.52 -1.86 1.24 -2.3 c0.7 -0.44 1.46 -0.66 2.14 -0.66 c1.5 0.02 2.46 0.6 2.98 1.32 c0.36 0.5 0.52 0.92 0.6 1.34 l-1.32 0.38 c-0.1 -0.4 -0.26 -0.72 -0.58 -1.12 c-0.34 -0.4 -0.94 -0.64 -1.68 -0.64 c-0.54 0 -0.98 0.14 -1.36 0.46 c-0.38 0.3 -0.56 0.68 -0.56 1.12 c0 0.78 0.56 1.14 1.44 1.36 l1.6 0.36 c1.3 0.3 2.6 1.12 2.6 2.72 z M144.17999999999998 15.48 l-8.04 0 c0.06 0.98 0.42 1.78 1.1 2.42 c0.68 0.66 1.5 0.98 2.46 0.98 c1.5 0 2.62 -0.74 3.08 -2.12 l1.28 0.4 c-0.28 0.94 -0.82 1.68 -1.62 2.22 c-0.8 0.52 -1.7 0.8 -2.72 0.8 c-0.94 0 -1.8 -0.24 -2.58 -0.7 s-1.38 -1.08 -1.8 -1.88 c-0.44 -0.78 -0.66 -1.64 -0.66 -2.58 c0 -0.9 0.2 -1.74 0.62 -2.52 c0.4 -0.8 0.98 -1.42 1.74 -1.9 c0.74 -0.48 1.58 -0.72 2.48 -0.72 c0.98 0 1.84 0.22 2.56 0.68 c0.72 0.44 1.26 1.06 1.6 1.82 c0.36 0.76 0.52 1.62 0.52 2.62 c0 0.1 0 0.26 -0.02 0.48 z M136.16 14.24 l6.58 0 c-0.1 -0.92 -0.44 -1.66 -1 -2.24 c-0.56 -0.56 -1.3 -0.84 -2.22 -0.84 c-0.86 0 -1.58 0.3 -2.22 0.9 c-0.64 0.62 -1.02 1.34 -1.14 2.18 z M149.94 14.26 l2.76 0 l0 -0.66 c0 -1.6 -0.88 -2.42 -2.54 -2.42 c-0.8 0 -1.48 0.26 -1.88 0.66 s-0.64 0.86 -0.72 1.36 l-1.4 -0.3 c0.02 -0.5 0.5 -1.48 1.4 -2.2 c0.6 -0.46 1.56 -0.82 2.64 -0.82 c1.82 0 3.02 0.68 3.62 2.06 c0.2 0.46 0.3 1 0.3 1.64 l0 2.8 c0 1.66 0.06 2.88 0.16 3.62 l-1.44 0 c-0.08 -0.44 -0.14 -1.02 -0.14 -1.74 l0 0 c-0.84 1.28 -1.94 1.92 -3.36 1.92 c-0.98 0 -1.8 -0.28 -2.4 -0.84 c-0.62 -0.54 -0.94 -1.24 -0.94 -2.1 l0 -0.1 c0 -2.16 2.16 -2.88 3.94 -2.88 z M152.7 15.8 l0 -0.34 l-2.78 0 c-0.58 0 -1.12 0.1 -1.62 0.34 c-0.5 0.22 -0.84 0.7 -0.84 1.32 c0 0.56 0.2 0.98 0.62 1.3 c0.4 0.32 0.9 0.48 1.52 0.48 c0.88 0 1.62 -0.3 2.22 -0.88 c0.58 -0.56 0.88 -1.32 0.88 -2.22 z M157.28 10.06 l1.42 0 l0 1.96 c0.48 -0.98 1.28 -1.64 2.04 -1.92 c0.38 -0.14 0.78 -0.2 1.18 -0.2 c0.22 0 0.38 0 0.48 0.04 l0 1.54 c-0.16 -0.04 -0.36 -0.04 -0.56 -0.04 c-2.36 0 -3.1 1.94 -3.1 3.7 l0 4.86 l-1.46 0 l0 -9.94 z M165.12000000000003 14.98 c0 1.4 0.58 2.62 1.68 3.34 c0.56 0.38 1.2 0.56 1.92 0.56 c0.84 0 1.58 -0.28 2.04 -0.62 c0.22 -0.16 0.42 -0.36 0.62 -0.6 c0.36 -0.48 0.52 -0.8 0.66 -1.16 l1.34 0.44 c-0.22 0.78 -0.76 1.54 -1.52 2.16 c-0.76 0.64 -1.92 1.08 -3.16 1.08 c-2.84 0.04 -5.1 -2.18 -5.06 -5.12 c0 -0.98 0.24 -1.86 0.7 -2.66 s1.08 -1.42 1.86 -1.86 s1.62 -0.66 2.56 -0.66 c1.12 0 2.12 0.32 2.96 0.92 c0.86 0.64 1.4 1.38 1.6 2.26 l-1.32 0.44 c-0.22 -0.8 -1.24 -2.32 -3.28 -2.32 c-1.04 0 -1.9 0.36 -2.58 1.1 s-1.02 1.64 -1.02 2.7 z M184.42000000000002 20 l-1.46 0 l0 -5.78 c0 -0.92 -0.22 -1.64 -0.7 -2.2 c-0.46 -0.54 -1.14 -0.82 -2.04 -0.82 c-0.86 0 -1.58 0.3 -2.14 0.9 c-0.54 0.6 -0.82 1.34 -0.82 2.24 l0 5.66 l-1.46 0 l0 -15.16 l1.46 0 l0 7 c0.78 -1.32 1.92 -1.96 3.4 -1.96 c1.18 0 2.1 0.36 2.78 1.08 c0.64 0.74 0.98 1.7 0.98 2.9 l0 6.14 z M193.16000000000003 20 l0 -14.58 l1.54 0 l0 13.14 l6.92 0 l0 1.44 l-8.46 0 z M206.88 14.26 l2.76 0 l0 -0.66 c0 -1.6 -0.88 -2.42 -2.54 -2.42 c-0.8 0 -1.48 0.26 -1.88 0.66 s-0.64 0.86 -0.72 1.36 l-1.4 -0.3 c0.02 -0.5 0.5 -1.48 1.4 -2.2 c0.6 -0.46 1.56 -0.82 2.64 -0.82 c1.82 0 3.02 0.68 3.62 2.06 c0.2 0.46 0.3 1 0.3 1.64 l0 2.8 c0 1.66 0.06 2.88 0.16 3.62 l-1.44 0 c-0.08 -0.44 -0.14 -1.02 -0.14 -1.74 l0 0 c-0.84 1.28 -1.94 1.92 -3.36 1.92 c-0.98 0 -1.8 -0.28 -2.4 -0.84 c-0.62 -0.54 -0.94 -1.24 -0.94 -2.1 l0 -0.1 c0 -2.16 2.16 -2.88 3.94 -2.88 z M209.64 15.8 l0 -0.34 l-2.78 0 c-0.58 0 -1.12 0.1 -1.62 0.34 c-0.5 0.22 -0.84 0.7 -0.84 1.32 c0 0.56 0.2 0.98 0.62 1.3 c0.4 0.32 0.9 0.48 1.52 0.48 c0.88 0 1.62 -0.3 2.22 -0.88 c0.58 -0.56 0.88 -1.32 0.88 -2.22 z M224.18 15.02 c0 1.8 -0.78 3.42 -2.22 4.4 c-0.72 0.48 -1.54 0.72 -2.46 0.72 c-1.62 0 -2.92 -0.74 -3.86 -2.24 l0 2.1 l-1.42 0 l0 -15.16 l1.46 0 l0 7.36 c1 -1.54 2.28 -2.32 3.82 -2.32 c1.38 0 2.62 0.62 3.42 1.6 c0.78 0.96 1.26 2.24 1.26 3.54 z M219.22 18.88 c1.06 0 1.9 -0.38 2.54 -1.1 c0.62 -0.74 0.94 -1.64 0.94 -2.72 c0 -1.4 -0.54 -2.62 -1.62 -3.34 c-0.52 -0.36 -1.16 -0.54 -1.86 -0.54 c-2.02 -0.04 -3.62 1.84 -3.56 3.82 c0 1.04 0.32 1.96 1 2.72 c0.68 0.78 1.52 1.16 2.56 1.16 z"/></g>
			</g>
		</svg>
	